# xmcd
#
# Track frame offsets: 
#        150
#        26275
#        46357
#        73542
#        97495
#        114940
#        129297
#        150837
#        172135
#        204767
#
# Disc length: 3034 seconds
#
# Revision: 5
# Processed by: cddbd v1.5.2PL0 Copyright (c) Steve Scherf et al.
# Submitted via: ExactAudioCopy v0.99pb4
#
DISCID=790bd80a
DTITLE=The Robert Cray Band - Sweet Potato Pie
DYEAR=1997
DGENRE=Blues
TTITLE0=Nothing Against You
TTITLE1=Do That For Me
TTITLE2=Back Home
TTITLE3=The One In The Middle
TTITLE4=Little Birds
TTITLE5=Trick Or Treat
TTITLE6=Simple Things
TTITLE7=Jealous Minds
TTITLE8=Not Bad For Love
TTITLE9=I Can't Quit
EXTD=YEAR: 1997
EXTT0=
EXTT1=
EXTT2=
EXTT3=
EXTT4=
EXTT5=
EXTT6=
EXTT7=
EXTT8=
EXTT9=
PLAYORDER=
